<?xml version="1.0" encoding="utf-8"?>
<!-- Generator: Adobe Illustrator 18.0.0, SVG Export Plug-In . SVG Version: 6.00 Build 0)  -->
<!DOCTYPE svg PUBLIC "-//W3C//DTD SVG 1.1//EN" "http://www.w3.org/Graphics/SVG/1.1/DTD/svg11.dtd">
<svg version="1.1" id="Layer_1" xmlns="http://www.w3.org/2000/svg" xmlns:xlink="http://www.w3.org/1999/xlink" x="0px" y="0px"
	 viewBox="0 0 1854 207" enable-background="new 0 0 1854 207" xml:space="preserve">
<text transform="matrix(1 0 0 1 23 200)" font-family="'OpenSans-Bold'" font-size="24">0</text>
<line fill="none" stroke="#000000" stroke-width="10" stroke-miterlimit="10" x1="30" y1="9.4" x2="30" y2="170.6"/>
<line fill="none" stroke="#000000" stroke-width="10" stroke-miterlimit="10" x1="60" y1="89.4" x2="60" y2="170"/>
<line fill="none" stroke="#000000" stroke-width="10" stroke-miterlimit="10" x1="90" y1="89.4" x2="90" y2="170"/>
<line fill="none" stroke="#000000" stroke-width="10" stroke-miterlimit="10" x1="120" y1="89.7" x2="120" y2="170.3"/>
<line fill="none" stroke="#000000" stroke-width="10" stroke-miterlimit="10" x1="150" y1="89.4" x2="150" y2="170"/>
<line fill="none" stroke="#000000" stroke-width="10" stroke-miterlimit="10" x1="30" y1="9.4" x2="30" y2="170.6"/>
<line fill="none" stroke="#000000" stroke-width="10" stroke-miterlimit="10" x1="60" y1="89.4" x2="60" y2="170"/>
<line fill="none" stroke="#000000" stroke-width="10" stroke-miterlimit="10" x1="90" y1="89.4" x2="90" y2="170"/>
<line fill="none" stroke="#000000" stroke-width="10" stroke-miterlimit="10" x1="120" y1="89.7" x2="120" y2="170.3"/>
<line fill="none" stroke="#000000" stroke-width="10" stroke-miterlimit="10" x1="150" y1="89.4" x2="150" y2="170"/>
<text transform="matrix(1 0 0 1 170 200.6061)" font-family="'OpenSans-Bold'" font-size="24">5</text>
<line fill="none" stroke="#000000" stroke-width="10" stroke-miterlimit="10" x1="177" y1="10" x2="177" y2="171.2"/>
<line fill="none" stroke="#000000" stroke-width="10" stroke-miterlimit="10" x1="207" y1="90" x2="207" y2="170.6"/>
<line fill="none" stroke="#000000" stroke-width="10" stroke-miterlimit="10" x1="237" y1="90" x2="237" y2="170.6"/>
<line fill="none" stroke="#000000" stroke-width="10" stroke-miterlimit="10" x1="267" y1="90.3" x2="267" y2="170.9"/>
<line fill="none" stroke="#000000" stroke-width="10" stroke-miterlimit="10" x1="297" y1="90" x2="297" y2="170.6"/>
<line fill="none" stroke="#000000" stroke-width="10" stroke-miterlimit="10" x1="177" y1="10" x2="177" y2="171.2"/>
<line fill="none" stroke="#000000" stroke-width="10" stroke-miterlimit="10" x1="207" y1="90" x2="207" y2="170.6"/>
<line fill="none" stroke="#000000" stroke-width="10" stroke-miterlimit="10" x1="237" y1="90" x2="237" y2="170.6"/>
<line fill="none" stroke="#000000" stroke-width="10" stroke-miterlimit="10" x1="267" y1="90.3" x2="267" y2="170.9"/>
<line fill="none" stroke="#000000" stroke-width="10" stroke-miterlimit="10" x1="297" y1="90" x2="297" y2="170.6"/>
<text transform="matrix(1 0 0 1 312 200)" font-family="'OpenSans-Bold'" font-size="24">10</text>
<line fill="none" stroke="#000000" stroke-width="10" stroke-miterlimit="10" x1="327" y1="9.4" x2="327" y2="170.6"/>
<line fill="none" stroke="#000000" stroke-width="10" stroke-miterlimit="10" x1="357" y1="89.4" x2="357" y2="170"/>
<line fill="none" stroke="#000000" stroke-width="10" stroke-miterlimit="10" x1="387" y1="89.4" x2="387" y2="170"/>
<line fill="none" stroke="#000000" stroke-width="10" stroke-miterlimit="10" x1="417" y1="89.7" x2="417" y2="170.3"/>
<line fill="none" stroke="#000000" stroke-width="10" stroke-miterlimit="10" x1="447" y1="89.4" x2="447" y2="170"/>
<line fill="none" stroke="#000000" stroke-width="10" stroke-miterlimit="10" x1="327" y1="9.4" x2="327" y2="170.6"/>
<line fill="none" stroke="#000000" stroke-width="10" stroke-miterlimit="10" x1="357" y1="89.4" x2="357" y2="170"/>
<line fill="none" stroke="#000000" stroke-width="10" stroke-miterlimit="10" x1="387" y1="89.4" x2="387" y2="170"/>
<line fill="none" stroke="#000000" stroke-width="10" stroke-miterlimit="10" x1="417" y1="89.7" x2="417" y2="170.3"/>
<line fill="none" stroke="#000000" stroke-width="10" stroke-miterlimit="10" x1="447" y1="89.4" x2="447" y2="170"/>
<text transform="matrix(1 0 0 1 459 200.6061)" font-family="'OpenSans-Bold'" font-size="24">15</text>
<line fill="none" stroke="#000000" stroke-width="10" stroke-miterlimit="10" x1="474" y1="10" x2="474" y2="171.2"/>
<line fill="none" stroke="#000000" stroke-width="10" stroke-miterlimit="10" x1="504" y1="90" x2="504" y2="170.6"/>
<line fill="none" stroke="#000000" stroke-width="10" stroke-miterlimit="10" x1="534" y1="90" x2="534" y2="170.6"/>
<line fill="none" stroke="#000000" stroke-width="10" stroke-miterlimit="10" x1="564" y1="90.3" x2="564" y2="170.9"/>
<line fill="none" stroke="#000000" stroke-width="10" stroke-miterlimit="10" x1="594" y1="90" x2="594" y2="170.6"/>
<line fill="none" stroke="#000000" stroke-width="10" stroke-miterlimit="10" x1="474" y1="10" x2="474" y2="171.2"/>
<line fill="none" stroke="#000000" stroke-width="10" stroke-miterlimit="10" x1="504" y1="90" x2="504" y2="170.6"/>
<line fill="none" stroke="#000000" stroke-width="10" stroke-miterlimit="10" x1="534" y1="90" x2="534" y2="170.6"/>
<line fill="none" stroke="#000000" stroke-width="10" stroke-miterlimit="10" x1="564" y1="90.3" x2="564" y2="170.9"/>
<line fill="none" stroke="#000000" stroke-width="10" stroke-miterlimit="10" x1="594" y1="90" x2="594" y2="170.6"/>
<text transform="matrix(1 0 0 1 611 200)" font-family="'OpenSans-Bold'" font-size="24">20</text>
<line fill="none" stroke="#000000" stroke-width="10" stroke-miterlimit="10" x1="626" y1="9.4" x2="626" y2="170.6"/>
<line fill="none" stroke="#000000" stroke-width="10" stroke-miterlimit="10" x1="656" y1="89.4" x2="656" y2="170"/>
<line fill="none" stroke="#000000" stroke-width="10" stroke-miterlimit="10" x1="686" y1="89.4" x2="686" y2="170"/>
<line fill="none" stroke="#000000" stroke-width="10" stroke-miterlimit="10" x1="716" y1="89.7" x2="716" y2="170.3"/>
<line fill="none" stroke="#000000" stroke-width="10" stroke-miterlimit="10" x1="746" y1="89.4" x2="746" y2="170"/>
<line fill="none" stroke="#000000" stroke-width="10" stroke-miterlimit="10" x1="626" y1="9.4" x2="626" y2="170.6"/>
<line fill="none" stroke="#000000" stroke-width="10" stroke-miterlimit="10" x1="656" y1="89.4" x2="656" y2="170"/>
<line fill="none" stroke="#000000" stroke-width="10" stroke-miterlimit="10" x1="686" y1="89.4" x2="686" y2="170"/>
<line fill="none" stroke="#000000" stroke-width="10" stroke-miterlimit="10" x1="716" y1="89.7" x2="716" y2="170.3"/>
<line fill="none" stroke="#000000" stroke-width="10" stroke-miterlimit="10" x1="746" y1="89.4" x2="746" y2="170"/>
<text transform="matrix(1 0 0 1 758 200.6061)" font-family="'OpenSans-Bold'" font-size="24">25</text>
<line fill="none" stroke="#000000" stroke-width="10" stroke-miterlimit="10" x1="773" y1="10" x2="773" y2="171.2"/>
<line fill="none" stroke="#000000" stroke-width="10" stroke-miterlimit="10" x1="803" y1="90" x2="803" y2="170.6"/>
<line fill="none" stroke="#000000" stroke-width="10" stroke-miterlimit="10" x1="833" y1="90" x2="833" y2="170.6"/>
<line fill="none" stroke="#000000" stroke-width="10" stroke-miterlimit="10" x1="863" y1="90.3" x2="863" y2="170.9"/>
<line fill="none" stroke="#000000" stroke-width="10" stroke-miterlimit="10" x1="893" y1="90" x2="893" y2="170.6"/>
<line fill="none" stroke="#000000" stroke-width="10" stroke-miterlimit="10" x1="773" y1="10" x2="773" y2="171.2"/>
<line fill="none" stroke="#000000" stroke-width="10" stroke-miterlimit="10" x1="803" y1="90" x2="803" y2="170.6"/>
<line fill="none" stroke="#000000" stroke-width="10" stroke-miterlimit="10" x1="833" y1="90" x2="833" y2="170.6"/>
<line fill="none" stroke="#000000" stroke-width="10" stroke-miterlimit="10" x1="863" y1="90.3" x2="863" y2="170.9"/>
<line fill="none" stroke="#000000" stroke-width="10" stroke-miterlimit="10" x1="893" y1="90" x2="893" y2="170.6"/>
<text transform="matrix(1 0 0 1 908 200)" font-family="'OpenSans-Bold'" font-size="24">30</text>
<line fill="none" stroke="#000000" stroke-width="10" stroke-miterlimit="10" x1="923" y1="9.4" x2="923" y2="170.6"/>
<line fill="none" stroke="#000000" stroke-width="10" stroke-miterlimit="10" x1="953" y1="89.4" x2="953" y2="170"/>
<line fill="none" stroke="#000000" stroke-width="10" stroke-miterlimit="10" x1="983" y1="89.4" x2="983" y2="170"/>
<line fill="none" stroke="#000000" stroke-width="10" stroke-miterlimit="10" x1="1013" y1="89.7" x2="1013" y2="170.3"/>
<line fill="none" stroke="#000000" stroke-width="10" stroke-miterlimit="10" x1="1043" y1="89.4" x2="1043" y2="170"/>
<line fill="none" stroke="#000000" stroke-width="10" stroke-miterlimit="10" x1="923" y1="9.4" x2="923" y2="170.6"/>
<line fill="none" stroke="#000000" stroke-width="10" stroke-miterlimit="10" x1="953" y1="89.4" x2="953" y2="170"/>
<line fill="none" stroke="#000000" stroke-width="10" stroke-miterlimit="10" x1="983" y1="89.4" x2="983" y2="170"/>
<line fill="none" stroke="#000000" stroke-width="10" stroke-miterlimit="10" x1="1013" y1="89.7" x2="1013" y2="170.3"/>
<line fill="none" stroke="#000000" stroke-width="10" stroke-miterlimit="10" x1="1043" y1="89.4" x2="1043" y2="170"/>
<text transform="matrix(1 0 0 1 1055 200.6061)" font-family="'OpenSans-Bold'" font-size="24">35</text>
<line fill="none" stroke="#000000" stroke-width="10" stroke-miterlimit="10" x1="1070" y1="10" x2="1070" y2="171.2"/>
<line fill="none" stroke="#000000" stroke-width="10" stroke-miterlimit="10" x1="1100" y1="90" x2="1100" y2="170.6"/>
<line fill="none" stroke="#000000" stroke-width="10" stroke-miterlimit="10" x1="1130" y1="90" x2="1130" y2="170.6"/>
<line fill="none" stroke="#000000" stroke-width="10" stroke-miterlimit="10" x1="1160" y1="90.3" x2="1160" y2="170.9"/>
<line fill="none" stroke="#000000" stroke-width="10" stroke-miterlimit="10" x1="1190" y1="90" x2="1190" y2="170.6"/>
<line fill="none" stroke="#000000" stroke-width="10" stroke-miterlimit="10" x1="1070" y1="10" x2="1070" y2="171.2"/>
<line fill="none" stroke="#000000" stroke-width="10" stroke-miterlimit="10" x1="1100" y1="90" x2="1100" y2="170.6"/>
<line fill="none" stroke="#000000" stroke-width="10" stroke-miterlimit="10" x1="1130" y1="90" x2="1130" y2="170.6"/>
<line fill="none" stroke="#000000" stroke-width="10" stroke-miterlimit="10" x1="1160" y1="90.3" x2="1160" y2="170.9"/>
<line fill="none" stroke="#000000" stroke-width="10" stroke-miterlimit="10" x1="1190" y1="90" x2="1190" y2="170.6"/>
<text transform="matrix(1 0 0 1 1209 200.6061)" font-family="'OpenSans-Bold'" font-size="24">40</text>
<line fill="none" stroke="#000000" stroke-width="10" stroke-miterlimit="10" x1="1224" y1="10" x2="1224" y2="171.2"/>
<line fill="none" stroke="#000000" stroke-width="10" stroke-miterlimit="10" x1="1254" y1="90" x2="1254" y2="170.6"/>
<line fill="none" stroke="#000000" stroke-width="10" stroke-miterlimit="10" x1="1284" y1="90" x2="1284" y2="170.6"/>
<line fill="none" stroke="#000000" stroke-width="10" stroke-miterlimit="10" x1="1314" y1="90.3" x2="1314" y2="170.9"/>
<line fill="none" stroke="#000000" stroke-width="10" stroke-miterlimit="10" x1="1344" y1="90" x2="1344" y2="170.6"/>
<line fill="none" stroke="#000000" stroke-width="10" stroke-miterlimit="10" x1="1224" y1="10" x2="1224" y2="171.2"/>
<line fill="none" stroke="#000000" stroke-width="10" stroke-miterlimit="10" x1="1254" y1="90" x2="1254" y2="170.6"/>
<line fill="none" stroke="#000000" stroke-width="10" stroke-miterlimit="10" x1="1284" y1="90" x2="1284" y2="170.6"/>
<line fill="none" stroke="#000000" stroke-width="10" stroke-miterlimit="10" x1="1314" y1="90.3" x2="1314" y2="170.9"/>
<line fill="none" stroke="#000000" stroke-width="10" stroke-miterlimit="10" x1="1344" y1="90" x2="1344" y2="170.6"/>
<text transform="matrix(1 0 0 1 1361 200)" font-family="'OpenSans-Bold'" font-size="24">45</text>
<line fill="none" stroke="#000000" stroke-width="10" stroke-miterlimit="10" x1="1376" y1="9.4" x2="1376" y2="170.6"/>
<line fill="none" stroke="#000000" stroke-width="10" stroke-miterlimit="10" x1="1406" y1="89.4" x2="1406" y2="170"/>
<line fill="none" stroke="#000000" stroke-width="10" stroke-miterlimit="10" x1="1436" y1="89.4" x2="1436" y2="170"/>
<line fill="none" stroke="#000000" stroke-width="10" stroke-miterlimit="10" x1="1466" y1="89.7" x2="1466" y2="170.3"/>
<line fill="none" stroke="#000000" stroke-width="10" stroke-miterlimit="10" x1="1496" y1="89.4" x2="1496" y2="170"/>
<line fill="none" stroke="#000000" stroke-width="10" stroke-miterlimit="10" x1="1376" y1="9.4" x2="1376" y2="170.6"/>
<line fill="none" stroke="#000000" stroke-width="10" stroke-miterlimit="10" x1="1406" y1="89.4" x2="1406" y2="170"/>
<line fill="none" stroke="#000000" stroke-width="10" stroke-miterlimit="10" x1="1436" y1="89.4" x2="1436" y2="170"/>
<line fill="none" stroke="#000000" stroke-width="10" stroke-miterlimit="10" x1="1466" y1="89.7" x2="1466" y2="170.3"/>
<line fill="none" stroke="#000000" stroke-width="10" stroke-miterlimit="10" x1="1496" y1="89.4" x2="1496" y2="170"/>
<text transform="matrix(1 0 0 1 1508 200.6061)" font-family="'OpenSans-Bold'" font-size="24">50</text>
<line fill="none" stroke="#000000" stroke-width="10" stroke-miterlimit="10" x1="1523" y1="10" x2="1523" y2="171.2"/>
<line fill="none" stroke="#000000" stroke-width="10" stroke-miterlimit="10" x1="1553" y1="90" x2="1553" y2="170.6"/>
<line fill="none" stroke="#000000" stroke-width="10" stroke-miterlimit="10" x1="1583" y1="90" x2="1583" y2="170.6"/>
<line fill="none" stroke="#000000" stroke-width="10" stroke-miterlimit="10" x1="1613" y1="90.3" x2="1613" y2="170.9"/>
<line fill="none" stroke="#000000" stroke-width="10" stroke-miterlimit="10" x1="1643" y1="90" x2="1643" y2="170.6"/>
<line fill="none" stroke="#000000" stroke-width="10" stroke-miterlimit="10" x1="1523" y1="10" x2="1523" y2="171.2"/>
<line fill="none" stroke="#000000" stroke-width="10" stroke-miterlimit="10" x1="1553" y1="90" x2="1553" y2="170.6"/>
<line fill="none" stroke="#000000" stroke-width="10" stroke-miterlimit="10" x1="1583" y1="90" x2="1583" y2="170.6"/>
<line fill="none" stroke="#000000" stroke-width="10" stroke-miterlimit="10" x1="1613" y1="90.3" x2="1613" y2="170.9"/>
<line fill="none" stroke="#000000" stroke-width="10" stroke-miterlimit="10" x1="1643" y1="90" x2="1643" y2="170.6"/>
<text transform="matrix(1 0 0 1 1658 200)" font-family="'OpenSans-Bold'" font-size="24">55</text>
<line fill="none" stroke="#000000" stroke-width="10" stroke-miterlimit="10" x1="1673" y1="9.4" x2="1673" y2="170.6"/>
<line fill="none" stroke="#000000" stroke-width="10" stroke-miterlimit="10" x1="1703" y1="89.4" x2="1703" y2="170"/>
<line fill="none" stroke="#000000" stroke-width="10" stroke-miterlimit="10" x1="1733" y1="89.4" x2="1733" y2="170"/>
<line fill="none" stroke="#000000" stroke-width="10" stroke-miterlimit="10" x1="1763" y1="89.7" x2="1763" y2="170.3"/>
<line fill="none" stroke="#000000" stroke-width="10" stroke-miterlimit="10" x1="1793" y1="89.4" x2="1793" y2="170"/>
<line fill="none" stroke="#000000" stroke-width="10" stroke-miterlimit="10" x1="1673" y1="9.4" x2="1673" y2="170.6"/>
<line fill="none" stroke="#000000" stroke-width="10" stroke-miterlimit="10" x1="1703" y1="89.4" x2="1703" y2="170"/>
<line fill="none" stroke="#000000" stroke-width="10" stroke-miterlimit="10" x1="1733" y1="89.4" x2="1733" y2="170"/>
<line fill="none" stroke="#000000" stroke-width="10" stroke-miterlimit="10" x1="1763" y1="89.7" x2="1763" y2="170.3"/>
<line fill="none" stroke="#000000" stroke-width="10" stroke-miterlimit="10" x1="1793" y1="89.4" x2="1793" y2="170"/>
<text transform="matrix(1 0 0 1 1805 200.6061)" font-family="'OpenSans-Bold'" font-size="24">60</text>
<line fill="none" stroke="#000000" stroke-width="10" stroke-miterlimit="10" x1="1820" y1="10" x2="1820" y2="171.2"/>
<line fill="none" stroke="#000000" stroke-width="10" stroke-miterlimit="10" x1="1820" y1="10" x2="1820" y2="171.2"/>
</svg>
