<?xml version="1.0" encoding="utf-8"?>
<!-- Generator: Adobe Illustrator 18.0.0, SVG Export Plug-In . SVG Version: 6.00 Build 0)  -->
<!DOCTYPE svg PUBLIC "-//W3C//DTD SVG 1.1//EN" "http://www.w3.org/Graphics/SVG/1.1/DTD/svg11.dtd">
<svg version="1.1" id="Layer_1" xmlns="http://www.w3.org/2000/svg" xmlns:xlink="http://www.w3.org/1999/xlink" x="0px" y="0px"
	 viewBox="0 0 1810 200" enable-background="new 0 0 1810 200" xml:space="preserve">
<text transform="matrix(1 0 0 1 0 193)" font-family="'OpenSans-Bold'" font-size="24">0</text>
<line fill="none" stroke="#000000" stroke-width="10" stroke-miterlimit="10" x1="7" y1="9.4" x2="7" y2="170.6"/>
<line fill="none" stroke="#000000" stroke-width="10" stroke-miterlimit="10" x1="37" y1="89.4" x2="37" y2="170"/>
<line fill="none" stroke="#000000" stroke-width="10" stroke-miterlimit="10" x1="67" y1="89.4" x2="67" y2="170"/>
<line fill="none" stroke="#000000" stroke-width="10" stroke-miterlimit="10" x1="97" y1="89.7" x2="97" y2="170.3"/>
<line fill="none" stroke="#000000" stroke-width="10" stroke-miterlimit="10" x1="127" y1="89.4" x2="127" y2="170"/>
<line fill="none" stroke="#000000" stroke-width="10" stroke-miterlimit="10" x1="7" y1="9.4" x2="7" y2="170.6"/>
<line fill="none" stroke="#000000" stroke-width="10" stroke-miterlimit="10" x1="37" y1="89.4" x2="37" y2="170"/>
<line fill="none" stroke="#000000" stroke-width="10" stroke-miterlimit="10" x1="67" y1="89.4" x2="67" y2="170"/>
<line fill="none" stroke="#000000" stroke-width="10" stroke-miterlimit="10" x1="97" y1="89.7" x2="97" y2="170.3"/>
<line fill="none" stroke="#000000" stroke-width="10" stroke-miterlimit="10" x1="127" y1="89.4" x2="127" y2="170"/>
<text transform="matrix(1 0 0 1 147 193.6061)" font-family="'OpenSans-Bold'" font-size="24">5</text>
<line fill="none" stroke="#000000" stroke-width="10" stroke-miterlimit="10" x1="154" y1="10" x2="154" y2="171.2"/>
<line fill="none" stroke="#000000" stroke-width="10" stroke-miterlimit="10" x1="184" y1="90" x2="184" y2="170.6"/>
<line fill="none" stroke="#000000" stroke-width="10" stroke-miterlimit="10" x1="214" y1="90" x2="214" y2="170.6"/>
<line fill="none" stroke="#000000" stroke-width="10" stroke-miterlimit="10" x1="244" y1="90.3" x2="244" y2="170.9"/>
<line fill="none" stroke="#000000" stroke-width="10" stroke-miterlimit="10" x1="274" y1="90" x2="274" y2="170.6"/>
<line fill="none" stroke="#000000" stroke-width="10" stroke-miterlimit="10" x1="154" y1="10" x2="154" y2="171.2"/>
<line fill="none" stroke="#000000" stroke-width="10" stroke-miterlimit="10" x1="184" y1="90" x2="184" y2="170.6"/>
<line fill="none" stroke="#000000" stroke-width="10" stroke-miterlimit="10" x1="214" y1="90" x2="214" y2="170.6"/>
<line fill="none" stroke="#000000" stroke-width="10" stroke-miterlimit="10" x1="244" y1="90.3" x2="244" y2="170.9"/>
<line fill="none" stroke="#000000" stroke-width="10" stroke-miterlimit="10" x1="274" y1="90" x2="274" y2="170.6"/>
<text transform="matrix(1 0 0 1 289 193)" font-family="'OpenSans-Bold'" font-size="24">10</text>
<line fill="none" stroke="#000000" stroke-width="10" stroke-miterlimit="10" x1="304" y1="9.4" x2="304" y2="170.6"/>
<line fill="none" stroke="#000000" stroke-width="10" stroke-miterlimit="10" x1="334" y1="89.4" x2="334" y2="170"/>
<line fill="none" stroke="#000000" stroke-width="10" stroke-miterlimit="10" x1="364" y1="89.4" x2="364" y2="170"/>
<line fill="none" stroke="#000000" stroke-width="10" stroke-miterlimit="10" x1="394" y1="89.7" x2="394" y2="170.3"/>
<line fill="none" stroke="#000000" stroke-width="10" stroke-miterlimit="10" x1="424" y1="89.4" x2="424" y2="170"/>
<line fill="none" stroke="#000000" stroke-width="10" stroke-miterlimit="10" x1="304" y1="9.4" x2="304" y2="170.6"/>
<line fill="none" stroke="#000000" stroke-width="10" stroke-miterlimit="10" x1="334" y1="89.4" x2="334" y2="170"/>
<line fill="none" stroke="#000000" stroke-width="10" stroke-miterlimit="10" x1="364" y1="89.4" x2="364" y2="170"/>
<line fill="none" stroke="#000000" stroke-width="10" stroke-miterlimit="10" x1="394" y1="89.7" x2="394" y2="170.3"/>
<line fill="none" stroke="#000000" stroke-width="10" stroke-miterlimit="10" x1="424" y1="89.4" x2="424" y2="170"/>
<text transform="matrix(1 0 0 1 436 193.6061)" font-family="'OpenSans-Bold'" font-size="24">15</text>
<line fill="none" stroke="#000000" stroke-width="10" stroke-miterlimit="10" x1="451" y1="10" x2="451" y2="171.2"/>
<line fill="none" stroke="#000000" stroke-width="10" stroke-miterlimit="10" x1="481" y1="90" x2="481" y2="170.6"/>
<line fill="none" stroke="#000000" stroke-width="10" stroke-miterlimit="10" x1="511" y1="90" x2="511" y2="170.6"/>
<line fill="none" stroke="#000000" stroke-width="10" stroke-miterlimit="10" x1="541" y1="90.3" x2="541" y2="170.9"/>
<line fill="none" stroke="#000000" stroke-width="10" stroke-miterlimit="10" x1="571" y1="90" x2="571" y2="170.6"/>
<line fill="none" stroke="#000000" stroke-width="10" stroke-miterlimit="10" x1="451" y1="10" x2="451" y2="171.2"/>
<line fill="none" stroke="#000000" stroke-width="10" stroke-miterlimit="10" x1="481" y1="90" x2="481" y2="170.6"/>
<line fill="none" stroke="#000000" stroke-width="10" stroke-miterlimit="10" x1="511" y1="90" x2="511" y2="170.6"/>
<line fill="none" stroke="#000000" stroke-width="10" stroke-miterlimit="10" x1="541" y1="90.3" x2="541" y2="170.9"/>
<line fill="none" stroke="#000000" stroke-width="10" stroke-miterlimit="10" x1="571" y1="90" x2="571" y2="170.6"/>
<text transform="matrix(1 0 0 1 588 193)" font-family="'OpenSans-Bold'" font-size="24">20</text>
<line fill="none" stroke="#000000" stroke-width="10" stroke-miterlimit="10" x1="603" y1="9.4" x2="603" y2="170.6"/>
<line fill="none" stroke="#000000" stroke-width="10" stroke-miterlimit="10" x1="633" y1="89.4" x2="633" y2="170"/>
<line fill="none" stroke="#000000" stroke-width="10" stroke-miterlimit="10" x1="663" y1="89.4" x2="663" y2="170"/>
<line fill="none" stroke="#000000" stroke-width="10" stroke-miterlimit="10" x1="693" y1="89.7" x2="693" y2="170.3"/>
<line fill="none" stroke="#000000" stroke-width="10" stroke-miterlimit="10" x1="723" y1="89.4" x2="723" y2="170"/>
<line fill="none" stroke="#000000" stroke-width="10" stroke-miterlimit="10" x1="603" y1="9.4" x2="603" y2="170.6"/>
<line fill="none" stroke="#000000" stroke-width="10" stroke-miterlimit="10" x1="633" y1="89.4" x2="633" y2="170"/>
<line fill="none" stroke="#000000" stroke-width="10" stroke-miterlimit="10" x1="663" y1="89.4" x2="663" y2="170"/>
<line fill="none" stroke="#000000" stroke-width="10" stroke-miterlimit="10" x1="693" y1="89.7" x2="693" y2="170.3"/>
<line fill="none" stroke="#000000" stroke-width="10" stroke-miterlimit="10" x1="723" y1="89.4" x2="723" y2="170"/>
<text transform="matrix(1 0 0 1 735 193.6061)" font-family="'OpenSans-Bold'" font-size="24">25</text>
<line fill="none" stroke="#000000" stroke-width="10" stroke-miterlimit="10" x1="750" y1="10" x2="750" y2="171.2"/>
<line fill="none" stroke="#000000" stroke-width="10" stroke-miterlimit="10" x1="780" y1="90" x2="780" y2="170.6"/>
<line fill="none" stroke="#000000" stroke-width="10" stroke-miterlimit="10" x1="810" y1="90" x2="810" y2="170.6"/>
<line fill="none" stroke="#000000" stroke-width="10" stroke-miterlimit="10" x1="840" y1="90.3" x2="840" y2="170.9"/>
<line fill="none" stroke="#000000" stroke-width="10" stroke-miterlimit="10" x1="870" y1="90" x2="870" y2="170.6"/>
<line fill="none" stroke="#000000" stroke-width="10" stroke-miterlimit="10" x1="750" y1="10" x2="750" y2="171.2"/>
<line fill="none" stroke="#000000" stroke-width="10" stroke-miterlimit="10" x1="780" y1="90" x2="780" y2="170.6"/>
<line fill="none" stroke="#000000" stroke-width="10" stroke-miterlimit="10" x1="810" y1="90" x2="810" y2="170.6"/>
<line fill="none" stroke="#000000" stroke-width="10" stroke-miterlimit="10" x1="840" y1="90.3" x2="840" y2="170.9"/>
<line fill="none" stroke="#000000" stroke-width="10" stroke-miterlimit="10" x1="870" y1="90" x2="870" y2="170.6"/>
<text transform="matrix(1 0 0 1 885 193)" font-family="'OpenSans-Bold'" font-size="24">30</text>
<line fill="none" stroke="#000000" stroke-width="10" stroke-miterlimit="10" x1="900" y1="9.4" x2="900" y2="170.6"/>
<line fill="none" stroke="#000000" stroke-width="10" stroke-miterlimit="10" x1="930" y1="89.4" x2="930" y2="170"/>
<line fill="none" stroke="#000000" stroke-width="10" stroke-miterlimit="10" x1="960" y1="89.4" x2="960" y2="170"/>
<line fill="none" stroke="#000000" stroke-width="10" stroke-miterlimit="10" x1="990" y1="89.7" x2="990" y2="170.3"/>
<line fill="none" stroke="#000000" stroke-width="10" stroke-miterlimit="10" x1="1020" y1="89.4" x2="1020" y2="170"/>
<line fill="none" stroke="#000000" stroke-width="10" stroke-miterlimit="10" x1="900" y1="9.4" x2="900" y2="170.6"/>
<line fill="none" stroke="#000000" stroke-width="10" stroke-miterlimit="10" x1="930" y1="89.4" x2="930" y2="170"/>
<line fill="none" stroke="#000000" stroke-width="10" stroke-miterlimit="10" x1="960" y1="89.4" x2="960" y2="170"/>
<line fill="none" stroke="#000000" stroke-width="10" stroke-miterlimit="10" x1="990" y1="89.7" x2="990" y2="170.3"/>
<line fill="none" stroke="#000000" stroke-width="10" stroke-miterlimit="10" x1="1020" y1="89.4" x2="1020" y2="170"/>
<text transform="matrix(1 0 0 1 1032 193.6061)" font-family="'OpenSans-Bold'" font-size="24">35</text>
<line fill="none" stroke="#000000" stroke-width="10" stroke-miterlimit="10" x1="1047" y1="10" x2="1047" y2="171.2"/>
<line fill="none" stroke="#000000" stroke-width="10" stroke-miterlimit="10" x1="1077" y1="90" x2="1077" y2="170.6"/>
<line fill="none" stroke="#000000" stroke-width="10" stroke-miterlimit="10" x1="1107" y1="90" x2="1107" y2="170.6"/>
<line fill="none" stroke="#000000" stroke-width="10" stroke-miterlimit="10" x1="1137" y1="90.3" x2="1137" y2="170.9"/>
<line fill="none" stroke="#000000" stroke-width="10" stroke-miterlimit="10" x1="1167" y1="90" x2="1167" y2="170.6"/>
<line fill="none" stroke="#000000" stroke-width="10" stroke-miterlimit="10" x1="1047" y1="10" x2="1047" y2="171.2"/>
<line fill="none" stroke="#000000" stroke-width="10" stroke-miterlimit="10" x1="1077" y1="90" x2="1077" y2="170.6"/>
<line fill="none" stroke="#000000" stroke-width="10" stroke-miterlimit="10" x1="1107" y1="90" x2="1107" y2="170.6"/>
<line fill="none" stroke="#000000" stroke-width="10" stroke-miterlimit="10" x1="1137" y1="90.3" x2="1137" y2="170.9"/>
<line fill="none" stroke="#000000" stroke-width="10" stroke-miterlimit="10" x1="1167" y1="90" x2="1167" y2="170.6"/>
<text transform="matrix(1 0 0 1 1186 193.6061)" font-family="'OpenSans-Bold'" font-size="24">40</text>
<line fill="none" stroke="#000000" stroke-width="10" stroke-miterlimit="10" x1="1201" y1="10" x2="1201" y2="171.2"/>
<line fill="none" stroke="#000000" stroke-width="10" stroke-miterlimit="10" x1="1231" y1="90" x2="1231" y2="170.6"/>
<line fill="none" stroke="#000000" stroke-width="10" stroke-miterlimit="10" x1="1261" y1="90" x2="1261" y2="170.6"/>
<line fill="none" stroke="#000000" stroke-width="10" stroke-miterlimit="10" x1="1291" y1="90.3" x2="1291" y2="170.9"/>
<line fill="none" stroke="#000000" stroke-width="10" stroke-miterlimit="10" x1="1321" y1="90" x2="1321" y2="170.6"/>
<line fill="none" stroke="#000000" stroke-width="10" stroke-miterlimit="10" x1="1201" y1="10" x2="1201" y2="171.2"/>
<line fill="none" stroke="#000000" stroke-width="10" stroke-miterlimit="10" x1="1231" y1="90" x2="1231" y2="170.6"/>
<line fill="none" stroke="#000000" stroke-width="10" stroke-miterlimit="10" x1="1261" y1="90" x2="1261" y2="170.6"/>
<line fill="none" stroke="#000000" stroke-width="10" stroke-miterlimit="10" x1="1291" y1="90.3" x2="1291" y2="170.9"/>
<line fill="none" stroke="#000000" stroke-width="10" stroke-miterlimit="10" x1="1321" y1="90" x2="1321" y2="170.6"/>
<text transform="matrix(1 0 0 1 1338 193)" font-family="'OpenSans-Bold'" font-size="24">45</text>
<line fill="none" stroke="#000000" stroke-width="10" stroke-miterlimit="10" x1="1353" y1="9.4" x2="1353" y2="170.6"/>
<line fill="none" stroke="#000000" stroke-width="10" stroke-miterlimit="10" x1="1383" y1="89.4" x2="1383" y2="170"/>
<line fill="none" stroke="#000000" stroke-width="10" stroke-miterlimit="10" x1="1413" y1="89.4" x2="1413" y2="170"/>
<line fill="none" stroke="#000000" stroke-width="10" stroke-miterlimit="10" x1="1443" y1="89.7" x2="1443" y2="170.3"/>
<line fill="none" stroke="#000000" stroke-width="10" stroke-miterlimit="10" x1="1473" y1="89.4" x2="1473" y2="170"/>
<line fill="none" stroke="#000000" stroke-width="10" stroke-miterlimit="10" x1="1353" y1="9.4" x2="1353" y2="170.6"/>
<line fill="none" stroke="#000000" stroke-width="10" stroke-miterlimit="10" x1="1383" y1="89.4" x2="1383" y2="170"/>
<line fill="none" stroke="#000000" stroke-width="10" stroke-miterlimit="10" x1="1413" y1="89.4" x2="1413" y2="170"/>
<line fill="none" stroke="#000000" stroke-width="10" stroke-miterlimit="10" x1="1443" y1="89.7" x2="1443" y2="170.3"/>
<line fill="none" stroke="#000000" stroke-width="10" stroke-miterlimit="10" x1="1473" y1="89.4" x2="1473" y2="170"/>
<text transform="matrix(1 0 0 1 1485 193.6061)" font-family="'OpenSans-Bold'" font-size="24">50</text>
<line fill="none" stroke="#000000" stroke-width="10" stroke-miterlimit="10" x1="1500" y1="10" x2="1500" y2="171.2"/>
<line fill="none" stroke="#000000" stroke-width="10" stroke-miterlimit="10" x1="1530" y1="90" x2="1530" y2="170.6"/>
<line fill="none" stroke="#000000" stroke-width="10" stroke-miterlimit="10" x1="1560" y1="90" x2="1560" y2="170.6"/>
<line fill="none" stroke="#000000" stroke-width="10" stroke-miterlimit="10" x1="1590" y1="90.3" x2="1590" y2="170.9"/>
<line fill="none" stroke="#000000" stroke-width="10" stroke-miterlimit="10" x1="1620" y1="90" x2="1620" y2="170.6"/>
<line fill="none" stroke="#000000" stroke-width="10" stroke-miterlimit="10" x1="1500" y1="10" x2="1500" y2="171.2"/>
<line fill="none" stroke="#000000" stroke-width="10" stroke-miterlimit="10" x1="1530" y1="90" x2="1530" y2="170.6"/>
<line fill="none" stroke="#000000" stroke-width="10" stroke-miterlimit="10" x1="1560" y1="90" x2="1560" y2="170.6"/>
<line fill="none" stroke="#000000" stroke-width="10" stroke-miterlimit="10" x1="1590" y1="90.3" x2="1590" y2="170.9"/>
<line fill="none" stroke="#000000" stroke-width="10" stroke-miterlimit="10" x1="1620" y1="90" x2="1620" y2="170.6"/>
<text transform="matrix(1 0 0 1 1635 193)" font-family="'OpenSans-Bold'" font-size="24">55</text>
<line fill="none" stroke="#000000" stroke-width="10" stroke-miterlimit="10" x1="1650" y1="9.4" x2="1650" y2="170.6"/>
<line fill="none" stroke="#000000" stroke-width="10" stroke-miterlimit="10" x1="1680" y1="89.4" x2="1680" y2="170"/>
<line fill="none" stroke="#000000" stroke-width="10" stroke-miterlimit="10" x1="1710" y1="89.4" x2="1710" y2="170"/>
<line fill="none" stroke="#000000" stroke-width="10" stroke-miterlimit="10" x1="1740" y1="89.7" x2="1740" y2="170.3"/>
<line fill="none" stroke="#000000" stroke-width="10" stroke-miterlimit="10" x1="1770" y1="89.4" x2="1770" y2="170"/>
<line fill="none" stroke="#000000" stroke-width="10" stroke-miterlimit="10" x1="1650" y1="9.4" x2="1650" y2="170.6"/>
<line fill="none" stroke="#000000" stroke-width="10" stroke-miterlimit="10" x1="1680" y1="89.4" x2="1680" y2="170"/>
<line fill="none" stroke="#000000" stroke-width="10" stroke-miterlimit="10" x1="1710" y1="89.4" x2="1710" y2="170"/>
<line fill="none" stroke="#000000" stroke-width="10" stroke-miterlimit="10" x1="1740" y1="89.7" x2="1740" y2="170.3"/>
<line fill="none" stroke="#000000" stroke-width="10" stroke-miterlimit="10" x1="1770" y1="89.4" x2="1770" y2="170"/>
<text transform="matrix(1 0 0 1 1782 193.6061)" font-family="'OpenSans-Bold'" font-size="24">60</text>
<line fill="none" stroke="#000000" stroke-width="10" stroke-miterlimit="10" x1="1797" y1="10" x2="1797" y2="171.2"/>
<line fill="none" stroke="#000000" stroke-width="10" stroke-miterlimit="10" x1="1797" y1="10" x2="1797" y2="171.2"/>
</svg>
